/* XPM */
static char *xastir[]={
"48 48 4 1",
"# c #000000",
"b c #00ff00",
". c #58a8ff",
"a c #ffff00",
"........#.......................................",
"........#...............##......................",
"........#..............####.....................",
"........#.............######....................",
".......##............########...................",
".......#............##########..................",
".......#...........############.................",
".......#..........##############................",
".......#.........################...............",
".......#........##################..............",
".......##......####################.............",
"........#.....######################............",
"........#....########################...........",
"........#...##########################..........",
"........#..############################.........",
"........#.##############################........",
"........#################################.......",
"........##################################......",
".......####################################.....",
"......######################################....",
".....########################################...",
"........#aaaaaaaaaaaaaaaaaaaaaaaaaaaaaaaa#......",
"........#aaaaaaaaaaaaaaaaaaaaaaaaaaaaaaaa#......",
"........#aaaaaaaaaaaaaaaaaaaaaaaaaaaaaaaa#......",
"bbbbbbbb#aa#######aaaaaaaaaaaaaa#######aa#bbbbbb",
"bbbbbbbb#aa#######aaaaaaaaaaaaaa#######aa#bbbbbb",
"bbbbbbbb#aa#######aaaaaaaaaaaaaa#######aa#bbbbbb",
"bbbbbbbb#aa#######aaa########aaa#######aa#bbbbbb",
"bbbbbbbb#aa#######aaa########aaa#######aa#bbbbbb",
"bbbbbbbb#aa#######aaa########aaa#######aa#bbbbbb",
"bbbbbbbb#aa#######aaa########aaa#######aa#bbbbbb",
"bbbbbbbb#aaaaaaaaaaaa########aaaaaaaaaaaa#bbbbbb",
"bbbbbbbb#aaaaaaaaaaaa########aaaaaaaaaaaa#bbbbbb",
"bbbbbbbb#aaaaaaaaaaaa########aaaaaaaaaaaa#bbbbbb",
"bbbbbbbb#aaaaaaaaaaaa########aaaaaaaaaaaa#bbbbbb",
"bbbbbbbb#aaaaaaaaaaaa########aaaaaaaaaaaa#bbbbbb",
"bbbbbbbb#aaaaaaaaaaaa########aaaaaaaaaaaa#bbbbbb",
"bbbbbbbb#aaaaaaaaaaaa########aaaaaaaaaaaa#bbbbbb",
"bbbbbbbb#aaaaaaaaaaaa########aaaaaaaaaaaa#bbbbbb",
"bbbbbbbb#aaaaaaaaaaaa########aaaaaaaaaaaa#bbbbbb",
"bbbbbbbb##################################bbbbbb",
"bbbbbbbbbbbbbbbbbbbbbbbbbbbbbbbbbbbbbbbbbbbbbbbb",
"bbbbbbbbbbbbbbbbbbbbbbbbbbbbbbbbbbbbbbbbbbbbbbbb",
"bbbbbbbbbbbbbbbbbbbbbbbbbbbbbbbbbbbbbbbbbbbbbbbb",
"bbbbbbbbbbbbbbbbbbbbbbbbbbbbbbbbbbbbbbbbbbbbbbbb",
"bbbbbbbbbbbbbbbbbbbbbbbbbbbbbbbbbbbbbbbbbbbbbbbb",
"bbbbbbbbbbbbbbbbbbbbbbbbbbbbbbbbbbbbbbbbbbbbbbbb",
"bbbbbbbbbbbbbbbbbbbbbbbbbbbbbbbbbbbbbbbbbbbbbbbb"};
